<svg width="18" height="19" viewBox="0 0 18 19" fill="none" xmlns="http://www.w3.org/2000/svg">
<path d="M10 1C10 0.447715 9.55228 0 9 0C8.44771 0 8 0.447715 8 1V8.58579L6.70711 7.29289C6.31658 6.90237 5.68342 6.90237 5.29289 7.29289C4.90237 7.68342 4.90237 8.31658 5.29289 8.70711L8.29289 11.7071C8.48042 11.8946 8.73478 12 9 12C9.26521 12 9.51957 11.8946 9.7071 11.7071L12.7071 8.70711C13.0976 8.31658 13.0976 7.68342 12.7071 7.29289C12.3166 6.90237 11.6834 6.90237 11.2929 7.29289L10 8.58578V1Z" fill="#5C5F62"/>
<path d="M2 14V3H6V1H1.5C0.671573 1 0 1.67157 0 2.5V17.5C0 18.3284 0.671573 19 1.5 19H16.5C17.3284 19 18 18.3284 18 17.5V2.5C18 1.67157 17.3284 1 16.5 1H12C12 1.66667 12 2.33333 12 3H16V14H12.5C11.7252 14 11.1123 14.6623 10.5742 15.2439C10.5369 15.2841 10.5 15.324 10.4634 15.3632C10.0983 15.755 9.57777 16 9 16C8.42223 16 7.90168 15.755 7.53657 15.3632C7.5 15.324 7.4631 15.2841 7.42584 15.2439C6.88768 14.6623 6.27479 14 5.5 14H2Z" fill="#5C5F62"/>
</svg>
