<svg width="20" height="20" viewBox="0 0 20 20" fill="none" xmlns="http://www.w3.org/2000/svg">
<path fill-rule="evenodd" clip-rule="evenodd" d="M11.5661 0.65964C10.7073 -0.21988 9.29275 -0.21988 8.43393 0.659639L7.47186 1.64491C7.05365 2.0732 6.47829 2.31152 5.87972 2.30439L4.50274 2.28799C3.27356 2.27335 2.27335 3.27356 2.28799 4.50274L2.30439 5.87972C2.31152 6.47829 2.0732 7.05365 1.64491 7.47186L0.65964 8.43393C-0.21988 9.29275 -0.21988 10.7073 0.659639 11.5661L1.64491 12.5281C2.0732 12.9463 2.31152 13.5217 2.30439 14.1203L2.28799 15.4973C2.27335 16.7264 3.27356 17.7267 4.50274 17.712L5.87972 17.6956C6.47829 17.6885 7.05365 17.9268 7.47186 18.3551L8.43393 19.3404C9.29275 20.2199 10.7073 20.2199 11.5661 19.3404L12.5281 18.3551C12.9463 17.9268 13.5217 17.6885 14.1203 17.6956L15.4973 17.712C16.7264 17.7267 17.7267 16.7264 17.712 15.4973L17.6956 14.1203C17.6885 13.5217 17.9268 12.9463 18.3551 12.5281L19.3404 11.5661C20.2199 10.7073 20.2199 9.29275 19.3404 8.43393L18.3551 7.47186C17.9268 7.05365 17.6885 6.47829 17.6956 5.87972L17.712 4.50274C17.7267 3.27356 16.7264 2.27335 15.4973 2.28799L14.1203 2.30439C13.5217 2.31152 12.9463 2.0732 12.5281 1.64491L11.5661 0.65964ZM7 8.5C7.82843 8.5 8.5 7.82843 8.5 7C8.5 6.17157 7.82843 5.5 7 5.5C6.17157 5.5 5.5 6.17157 5.5 7C5.5 7.82843 6.17157 8.5 7 8.5ZM13 14.5C13.8284 14.5 14.5 13.8284 14.5 13C14.5 12.1716 13.8284 11.5 13 11.5C12.1716 11.5 11.5 12.1716 11.5 13C11.5 13.8284 12.1716 14.5 13 14.5ZM13.7777 6.22218C14.2073 6.65175 14.2073 7.34823 13.7777 7.77781L7.77772 13.7778C7.34814 14.2074 6.65166 14.2074 6.22208 13.7778C5.79251 13.3482 5.79251 12.6518 6.22208 12.2222L12.2221 6.22218C12.6517 5.7926 13.3481 5.7926 13.7777 6.22218Z" fill="#5C5F62"/>
</svg>
