<svg width="18" height="18" viewBox="0 0 18 18" fill="none" xmlns="http://www.w3.org/2000/svg">
<path fill-rule="evenodd" clip-rule="evenodd" d="M9.29289 0.292893C9.48043 0.105357 9.73478 0 10 0H17C17.5523 0 18 0.447715 18 1V8C18 8.26522 17.8946 8.51957 17.7071 8.70711L8.70711 17.7071C8.31658 18.0976 7.68342 18.0976 7.29289 17.7071L0.292893 10.7071C-0.0976311 10.3166 -0.0976311 9.68342 0.292893 9.29289L9.29289 0.292893ZM14.5 5C15.3284 5 16 4.32843 16 3.5C16 2.67157 15.3284 2 14.5 2C13.6716 2 13 2.67157 13 3.5C13 4.32843 13.6716 5 14.5 5Z" fill="#5C5F62"/>
</svg>
