<svg width="18" height="20" viewBox="0 0 18 20" fill="none" xmlns="http://www.w3.org/2000/svg">
<path fill-rule="evenodd" clip-rule="evenodd" d="M8.72977 9.46L9.50186 7.2C9.50186 7.2 8.98012 6.91 7.92864 6.91C5.2148 6.91 3.86389 8.71 3.86389 10.57C3.86389 12.78 6.08603 12.84 6.08603 14.18C6.08603 14.51 5.85571 14.95 5.2859 14.95C4.41367 14.95 3.38221 14.07 3.38221 14.07L2.85146 15.8C2.85146 15.8 3.86389 17.01 5.82666 17.01C7.46799 17.01 8.6797 15.79 8.6797 13.89C8.6797 11.47 5.97588 11.08 5.97588 10.04C5.97588 9.86 6.03696 9.11 7.23766 9.11C8.05882 9.11 8.72977 9.46 8.72977 9.46ZM6.38646 3.84C5.87573 3.98 5.50521 4.41 5.44513 4.93C5.40607 5.35 5.64541 5.78 6.14612 5.74C6.64682 5.7 7.04739 5.23 7.14753 4.77C7.25769 4.28 6.96728 3.73 6.38646 3.84ZM7.73837 1.14C7.41791 1.14 7.01735 1.689 6.89718 2.5L8.50045 2.11C8.30917 1.47 7.96869 1.14 7.73837 1.14ZM9.6711 2.04C9.99155 2.13 10.293 2.33 10.4822 2.62L12.1045 4.75C12.2648 4.98 12.3008 5.208 12.2848 5.53L12.0545 10.37L11.724 17.05L11.6249 19.01C11.6249 19.14 11.6138 19.27 11.5938 19.39C11.5047 19.88 11.0841 20.06 10.6234 19.98L5.2148 18.97L1.9602 18.36C1.44948 18.27 0.888683 18.21 0.387975 18.07C-0.212874 17.899 0.0474938 16.97 0.10858 16.52L0.468088 13.74L1.28925 7.51C1.32029 7.3 1.33932 7.09 1.36936 6.88C1.41943 6.6 1.5396 6.33 1.70984 6.1L3.39222 3.71C3.57348 3.43 3.86389 3.23 4.19336 3.16L5.40607 2.86L5.70549 2.79C5.79562 1.21 6.64682 0 7.74938 0C8.64966 0 9.40072 0.86 9.6711 2.04ZM12.017 2L15.8975 4.616C16.0657 4.773 16.1739 4.985 16.2079 5.214L17.9814 18.222C18.0305 18.417 17.9814 18.623 17.8452 18.771C17.715 18.923 17.5138 18.998 17.3175 18.972L13.7034 18.602L13.7685 17.243L14.1009 10.378L14.3523 5.17C14.3613 4.988 14.3022 4.809 14.1871 4.667L12.017 2Z" fill="#5C5F62"/>
</svg>
