<svg width="20" height="20" viewBox="0 0 20 20" fill="none" xmlns="http://www.w3.org/2000/svg">
<path fill-rule="evenodd" clip-rule="evenodd" d="M9.02749 0C8.52993 0 8.10805 0.365936 8.03774 0.858582L7.6664 3.45728C6.96401 3.72517 6.31582 4.10295 5.74282 4.5696L3.30483 3.591C2.84292 3.40564 2.31509 3.58806 2.06631 4.01904L0.933738 5.98094C0.684714 6.41193 0.790671 6.96028 1.18227 7.26755L3.24795 8.88904C3.19033 9.25085 3.1603 9.62193 3.1603 10C3.1603 10.3781 3.19033 10.7491 3.24795 11.1109L1.18227 12.7324C0.790671 13.0397 0.684714 13.5881 0.933738 14.019L2.06631 15.9809C2.31509 16.4119 2.84292 16.5943 3.30483 16.409L5.74282 15.4304C6.31582 15.897 6.96401 16.2748 7.6664 16.5427L8.03774 19.1414C8.10805 19.6341 8.52993 20 9.02749 20H11.2931C11.7907 20 12.2125 19.6341 12.2829 19.1414L12.6542 16.5427C13.3566 16.2748 14.0048 15.8971 14.5778 15.4305L17.0155 16.409C17.4774 16.5943 18.0053 16.4119 18.254 15.9809L19.3869 14.019C19.6356 13.5881 19.5297 13.0397 19.1383 12.7324L17.0727 11.111C17.1303 10.7492 17.1603 10.3781 17.1603 10C17.1603 9.87653 17.1571 9.7538 17.1508 9.6319C17.1378 9.38052 17.1115 9.13266 17.0727 8.88898L19.1383 7.26755C19.5297 6.96028 19.6356 6.41193 19.3869 5.98094L18.254 4.01904C18.0053 3.58806 17.4774 3.40564 17.0155 3.591L14.5778 4.56953C14.0048 4.10292 13.3566 3.72517 12.6542 3.45728L12.2829 0.858582C12.2125 0.365936 11.7907 0 11.2931 0H9.02749ZM10.1604 13C11.8173 13 13.1604 11.6569 13.1604 10C13.1604 8.34315 11.8173 7 10.1604 7C8.50355 7 7.1604 8.34315 7.1604 10C7.1604 11.6569 8.50355 13 10.1604 13Z" fill="#5C5F62"/>
</svg>
