<svg width="18" height="18" viewBox="0 0 18 18" fill="none" xmlns="http://www.w3.org/2000/svg">
<path d="M0.791123 1.2534L0.19409 4.83559C0.0925016 5.44512 0.562545 5.99999 1.18048 5.99999H2.07297C2.64113 5.99999 3.16053 5.67898 3.41461 5.17081L4.00002 3.99999L4.58543 5.17081C4.83952 5.67898 5.35892 5.99999 5.92707 5.99999H7.07297C7.64113 5.99999 8.16053 5.67898 8.41461 5.17081L9.00002 3.99999L9.58543 5.17081C9.83952 5.67898 10.3589 5.99999 10.9271 5.99999H12.073C12.6411 5.99999 13.1605 5.67898 13.4146 5.17081L14 3.99999L14.5854 5.17081C14.8395 5.67898 15.3589 5.99999 15.9271 5.99999H16.8196C17.4375 5.99999 17.9075 5.44512 17.806 4.83559L17.2089 1.2534C17.0884 0.530119 16.4626 0 15.7293 0H2.27071C1.53745 0 0.91167 0.53012 0.791123 1.2534Z" fill="#5C5F62"/>
<path d="M17 8H1.00002V16.5C1.00002 17.3284 1.6716 18 2.50002 18H6.00002V11H12V18H15.5C16.3285 18 17 17.3284 17 16.5V8Z" fill="#5C5F62"/>
</svg>
