<svg width="115" height="100" viewBox="0 0 103 85" fill="none" xmlns="http://www.w3.org/2000/svg">
<path d="M87.4528 19.3182V0H42.7547V42.5H91.3396L87.4528 19.3182Z" fill="#108060"/>
<path d="M42.7548 42.5V85H99.1132L91.3397 42.5H42.7548Z" fill="#00735C"/>
<path d="M83.566 23.1818L103 3.86364V0H83.566V23.1818Z" fill="#108060"/>
<path d="M46.6415 0H34.9811C30.7056 0 27.2075 3.47727 27.2075 7.72727V22.1985C27.2075 23.8085 28.5127 25.1136 30.1226 25.1136C31.7326 25.1136 33.0377 23.8085 33.0377 22.1985V7.72727C33.0377 6.56818 33.8151 5.79545 34.9811 5.79545H46.6415V0Z" fill="#108060"/>
<path d="M42.7547 85C19.0453 85 0 66.0682 0 42.5H42.7547V85Z" fill="#EC856F"/>
<path d="M42.7548 85C66.4642 85 85.5095 66.0682 85.5095 42.5H42.7548V85Z" fill="#DE6A5A"/>
<path d="M42.7549 56.0227H2.13794C2.72096 57.9545 3.69263 59.8863 4.66433 61.8182H42.7549V56.0227Z" fill="white"/>
<path d="M42.7548 56.0227V61.8182H80.8453C81.817 59.8863 82.5944 57.9545 83.3718 56.0227H42.7548Z" fill="#E9B99E"/>
</svg>
