<svg width="40" height="40" viewBox="0 0 40 40" fill="none" xmlns="http://www.w3.org/2000/svg">
<path d="M0 20C0 8.95431 8.95431 0 20 0C31.0457 0 40 8.95431 40 20C40 31.0457 31.0457 40 20 40C8.95431 40 0 31.0457 0 20Z" fill="#91E0D6"/>
<path fill-rule="evenodd" clip-rule="evenodd" d="M20 20.1547C23.3137 20.1547 26 17.4684 26 14.1547C26 10.841 23.3137 8.15469 20 8.15469C16.6863 8.15469 14 10.841 14 14.1547C14 17.4684 16.6863 20.1547 20 20.1547ZM20 36.1547C25.0416 36.1547 29.5462 33.8105 32.4811 30.1548C29.5462 26.4991 25.0415 24.1547 19.9998 24.1547C14.9582 24.1547 10.4535 26.4989 7.51862 30.1545C10.4535 33.8103 14.9583 36.1547 20 36.1547Z" fill="#006A68"/>
</svg>
