<svg width="16" height="16" viewBox="0 0 16 16" fill="none" xmlns="http://www.w3.org/2000/svg">
<path fill-rule="evenodd" clip-rule="evenodd" d="M3.19974 15.9999C3.03414 15.9999 2.86934 15.9487 2.73014 15.8479C2.49014 15.6735 2.36533 15.3808 2.40774 15.0864L3.15094 9.88332L0.234122 6.96581C0.0221212 6.75382 -0.0530793 6.44183 0.0381213 6.15624C0.129322 5.87065 0.372523 5.66025 0.667725 5.61146L5.06615 4.87788L7.28376 0.442814C7.42056 0.170023 7.72057 -0.00997163 8.00377 0.000428047C8.30857 0.002028 8.58537 0.176423 8.71897 0.450814L10.8422 4.81228L15.3398 5.61306C15.6334 5.66505 15.8734 5.87625 15.963 6.16024C16.0526 6.44503 15.9766 6.75542 15.7654 6.96581L12.8478 9.88332L13.5918 15.0864C13.6334 15.3824 13.5086 15.6767 13.2654 15.8503C13.023 16.0247 12.703 16.0479 12.4382 15.9135L8.05577 13.6944L3.55414 15.9167C3.44214 15.9727 3.32054 15.9999 3.19974 15.9999Z" fill="#BABEC3"/>
</svg>
