<svg width="17" height="18" viewBox="0 0 17 18" fill="none" xmlns="http://www.w3.org/2000/svg">
<path d="M12.3628 4.21918C12.3628 6.54936 10.4738 8.43835 8.14361 8.43835C5.81343 8.43835 3.92444 6.54936 3.92444 4.21918C3.92444 1.88899 5.81343 0 8.14361 0C10.4738 0 12.3628 1.88899 12.3628 4.21918Z" fill="#5C5F62"/>
<path d="M0.66954 13.469C2.05467 12.3796 4.81128 10.6164 8.14361 10.6164C11.4759 10.6164 14.2326 12.3796 15.6177 13.469C16.236 13.9552 16.4288 14.7772 16.1847 15.5249L15.8515 16.5452C15.5682 17.4129 14.7589 18 13.8461 18H2.4411C1.5283 18 0.719045 17.4129 0.435711 16.5452L0.102557 15.5249C-0.141596 14.7772 0.0512697 13.9552 0.66954 13.469Z" fill="#5C5F62"/>
</svg>
