<svg width="16" height="15" viewBox="0 0 16 15" fill="none" xmlns="http://www.w3.org/2000/svg">
<path d="M13.5 0C12.6716 0 12 0.671573 12 1.5V13.5C12 14.3284 12.6716 15 13.5 15H14.5C15.3284 15 16 14.3284 16 13.5V1.5C16 0.671573 15.3284 0 14.5 0H13.5Z" fill="#5C5F62"/>
<path d="M6 5.5C6 4.67157 6.67157 4 7.5 4H8.5C9.32843 4 10 4.67157 10 5.5V13.5C10 14.3284 9.32843 15 8.5 15H7.5C6.67157 15 6 14.3284 6 13.5V5.5Z" fill="#5C5F62"/>
<path d="M0 9.5C0 8.67157 0.671573 8 1.5 8H2.5C3.32843 8 4 8.67157 4 9.5V13.5C4 14.3284 3.32843 15 2.5 15H1.5C0.671573 15 0 14.3284 0 13.5V9.5Z" fill="#5C5F62"/>
</svg>
